<?xml version="1.0" encoding="utf-8"?>
<!-- Generator: Adobe Illustrator 21.0.0, SVG Export Plug-In . SVG Version: 6.00 Build 0)  -->
<svg version="1.1" id="Layer_1" xmlns="http://www.w3.org/2000/svg" xmlns:xlink="http://www.w3.org/1999/xlink" x="0px" y="0px"
	 viewBox="0 0 512 512" style="enable-background:new 0 0 512 512;" xml:space="preserve">
<style type="text/css">
	.st0{clip-path:url(#SVGID_2_);fill:#3F51B5;}
	.st1{clip-path:url(#SVGID_4_);fill:#303F9F;}
	.st2{clip-path:url(#SVGID_6_);fill:#131212;}
	.st3{clip-path:url(#SVGID_8_);fill:#D3D8D2;}
	.st4{clip-path:url(#SVGID_10_);fill:#414141;}
	.st5{clip-path:url(#SVGID_12_);fill:#131212;}
	.st6{clip-path:url(#SVGID_14_);fill:#D3D8D2;}
	.st7{clip-path:url(#SVGID_16_);fill:#414141;}
	.st8{clip-path:url(#SVGID_18_);fill:#5C575B;}
	.st9{clip-path:url(#SVGID_20_);fill:#5C575B;}
	.st10{clip-path:url(#SVGID_22_);fill:#AAA3A4;}
	.st11{clip-path:url(#SVGID_24_);fill:#272727;}
	.st12{clip-path:url(#SVGID_26_);fill:#D3D8D2;}
	.st13{clip-path:url(#SVGID_28_);fill:#414141;}
	.st14{clip-path:url(#SVGID_30_);fill:#272727;}
	.st15{clip-path:url(#SVGID_32_);fill:#D3D8D2;}
	.st16{clip-path:url(#SVGID_34_);fill:#414141;}
	.st17{clip-path:url(#SVGID_36_);fill:#929091;}
	.st18{clip-path:url(#SVGID_38_);fill:#929091;}
	.st19{clip-path:url(#SVGID_40_);fill:#C8C8C8;}
	.st20{clip-path:url(#SVGID_42_);fill:#283F47;}
	.st21{clip-path:url(#SVGID_44_);fill:#D3D8D2;}
	.st22{clip-path:url(#SVGID_46_);fill:#1A237E;}
	.st23{clip-path:url(#SVGID_48_);fill:#FFFFFF;}
	.st24{clip-path:url(#SVGID_50_);fill:#303F9F;}
</style>
<g>
	<defs>
		<rect id="SVGID_1_" width="512" height="512"/>
	</defs>
	<clipPath id="SVGID_2_">
		<use xlink:href="#SVGID_1_"  style="overflow:visible;"/>
	</clipPath>
	<circle class="st0" cx="256" cy="258" r="254"/>
</g>
<g>
	<defs>
		<rect id="SVGID_3_" width="512" height="512"/>
	</defs>
	<clipPath id="SVGID_4_">
		<use xlink:href="#SVGID_3_"  style="overflow:visible;"/>
	</clipPath>
	<path class="st1" d="M357,117.4l-3.3,5.2l-89,48.5l-72-18.7l-12.9-15.3l-4.2-3.4c0,0,0.5-8.5-16.5-14.4
		c-17.1-5.9-41.6,9.1-41.6,9.1l78.9,76.2l25.6,81c-21.3,24,0,50.7,0,50.7l-10.1,58.1l-9.1,4.7l107.9,106.9
		C421.3,482,505,385.7,510,269L408.3,155l-15.1,2.1L357,117.4z"/>
</g>
<g>
	<defs>
		<rect id="SVGID_5_" width="512" height="512"/>
	</defs>
	<clipPath id="SVGID_6_">
		<use xlink:href="#SVGID_5_"  style="overflow:visible;"/>
	</clipPath>
	<circle class="st2" cx="346.1" cy="371.8" r="21.7"/>
</g>
<g>
	<defs>
		<rect id="SVGID_7_" width="512" height="512"/>
	</defs>
	<clipPath id="SVGID_8_">
		<use xlink:href="#SVGID_7_"  style="overflow:visible;"/>
	</clipPath>
	<circle class="st3" cx="346.1" cy="371.8" r="12.6"/>
</g>
<g>
	<defs>
		<rect id="SVGID_9_" width="512" height="512"/>
	</defs>
	<clipPath id="SVGID_10_">
		<use xlink:href="#SVGID_9_"  style="overflow:visible;"/>
	</clipPath>
	<circle class="st4" cx="346.1" cy="371.8" r="9.1"/>
</g>
<g>
	<defs>
		<rect id="SVGID_11_" width="512" height="512"/>
	</defs>
	<clipPath id="SVGID_12_">
		<use xlink:href="#SVGID_11_"  style="overflow:visible;"/>
	</clipPath>
	<circle class="st5" cx="223.8" cy="371.8" r="21.7"/>
</g>
<g>
	<defs>
		<rect id="SVGID_13_" width="512" height="512"/>
	</defs>
	<clipPath id="SVGID_14_">
		<use xlink:href="#SVGID_13_"  style="overflow:visible;"/>
	</clipPath>
	<circle class="st6" cx="223.8" cy="371.8" r="12.6"/>
</g>
<g>
	<defs>
		<rect id="SVGID_15_" width="512" height="512"/>
	</defs>
	<clipPath id="SVGID_16_">
		<use xlink:href="#SVGID_15_"  style="overflow:visible;"/>
	</clipPath>
	<circle class="st7" cx="223.8" cy="371.8" r="9.1"/>
</g>
<g>
	<defs>
		<rect id="SVGID_17_" width="512" height="512"/>
	</defs>
	<clipPath id="SVGID_18_">
		<use xlink:href="#SVGID_17_"  style="overflow:visible;"/>
	</clipPath>
	<polygon class="st8" points="342.7,373.7 349.5,373.7 352.9,342.1 339.3,335.3 	"/>
</g>
<g>
	<defs>
		<rect id="SVGID_19_" width="512" height="512"/>
	</defs>
	<clipPath id="SVGID_20_">
		<use xlink:href="#SVGID_19_"  style="overflow:visible;"/>
	</clipPath>
	<polygon class="st9" points="227.2,373.7 220.4,373.7 217,342.1 230.6,335.3 	"/>
</g>
<g>
	<defs>
		<rect id="SVGID_21_" width="512" height="512"/>
	</defs>
	<clipPath id="SVGID_22_">
		<use xlink:href="#SVGID_21_"  style="overflow:visible;"/>
	</clipPath>
	<path class="st10" d="M358.1,338.3l9.4,16.1l-4.9-0.8c0,0-35.5-27.3-77.7-24.9c-42.1,2.4-82.5,25.6-82.5,25.6l11.5-14.1
		C213.9,340.2,275.1,288.2,358.1,338.3z"/>
</g>
<g>
	<defs>
		<rect id="SVGID_23_" width="512" height="512"/>
	</defs>
	<clipPath id="SVGID_24_">
		<use xlink:href="#SVGID_23_"  style="overflow:visible;"/>
	</clipPath>
	<circle class="st11" cx="351.4" cy="382.1" r="23.6"/>
</g>
<g>
	<defs>
		<rect id="SVGID_25_" width="512" height="512"/>
	</defs>
	<clipPath id="SVGID_26_">
		<use xlink:href="#SVGID_25_"  style="overflow:visible;"/>
	</clipPath>
	<circle class="st12" cx="351.4" cy="382.1" r="13.7"/>
</g>
<g>
	<defs>
		<rect id="SVGID_27_" width="512" height="512"/>
	</defs>
	<clipPath id="SVGID_28_">
		<use xlink:href="#SVGID_27_"  style="overflow:visible;"/>
	</clipPath>
	<circle class="st13" cx="351.4" cy="382.1" r="9.9"/>
</g>
<g>
	<defs>
		<rect id="SVGID_29_" width="512" height="512"/>
	</defs>
	<clipPath id="SVGID_30_">
		<use xlink:href="#SVGID_29_"  style="overflow:visible;"/>
	</clipPath>
	<circle class="st14" cx="218.5" cy="382.1" r="23.6"/>
</g>
<g>
	<defs>
		<rect id="SVGID_31_" width="512" height="512"/>
	</defs>
	<clipPath id="SVGID_32_">
		<use xlink:href="#SVGID_31_"  style="overflow:visible;"/>
	</clipPath>
	<circle class="st15" cx="218.5" cy="382.1" r="13.7"/>
</g>
<g>
	<defs>
		<rect id="SVGID_33_" width="512" height="512"/>
	</defs>
	<clipPath id="SVGID_34_">
		<use xlink:href="#SVGID_33_"  style="overflow:visible;"/>
	</clipPath>
	<circle class="st16" cx="218.5" cy="382.1" r="9.9"/>
</g>
<g>
	<defs>
		<rect id="SVGID_35_" width="512" height="512"/>
	</defs>
	<clipPath id="SVGID_36_">
		<use xlink:href="#SVGID_35_"  style="overflow:visible;"/>
	</clipPath>
	<polygon class="st17" points="347.7,384.1 355.1,384.1 358.8,349.8 344,342.3 	"/>
</g>
<g>
	<defs>
		<rect id="SVGID_37_" width="512" height="512"/>
	</defs>
	<clipPath id="SVGID_38_">
		<use xlink:href="#SVGID_37_"  style="overflow:visible;"/>
	</clipPath>
	<polygon class="st18" points="222.2,384.1 214.8,384.1 211.1,349.8 225.9,342.3 	"/>
</g>
<g>
	<defs>
		<rect id="SVGID_39_" width="512" height="512"/>
	</defs>
	<clipPath id="SVGID_40_">
		<use xlink:href="#SVGID_39_"  style="overflow:visible;"/>
	</clipPath>
	<path class="st19" d="M205,358c88.6-61.3,158.8-0.8,159.5-0.2l3-3.4c-0.7-0.6-73.5-63.6-165.1-0.2L205,358z"/>
</g>
<g>
	<defs>
		<rect id="SVGID_41_" x="0" y="0" width="512" height="512"/>
	</defs>
	<clipPath id="SVGID_42_">
		<use xlink:href="#SVGID_41_"  style="overflow:visible;"/>
	</clipPath>
	
		<rect x="233.2" y="95.8" transform="matrix(0.7516 -0.6596 0.6596 0.7516 -72.5776 203.6973)" class="st20" width="2" height="204.8"/>
</g>
<g>
	<defs>
		<rect id="SVGID_43_" width="512" height="512"/>
	</defs>
	<clipPath id="SVGID_44_">
		<use xlink:href="#SVGID_43_"  style="overflow:visible;"/>
	</clipPath>
	<path class="st21" d="M230.7,182.9l-37.8-1.6l-11.4-37.7l43.2,3.7L230.7,182.9z M237.4,221.9l-32.6-1.5l-9.4-31l36.8,1.5
		L237.4,221.9z M272.3,151.4l2.8,33.3l-36.2-1.5l-6-35.2L272.3,151.4z M278.4,223.8l-32.8-1.5l-5.3-31l35.5,1.5L278.4,223.8z
		 M281.6,261.9h-29.3l-5.4-31.5l32.1,1.4L281.6,261.9z M321,155.6l0.1,31.1l-38-1.6l-2.8-33L321,155.6z M321.3,225.7l-34.8-1.6
		l-2.6-31l37.3,1.5L321.3,225.7z M321.4,261.9h-31.8l-2.5-29.7l34.2,1.5L321.4,261.9z M363.7,159.2l-3.3,29l-31.2-1.3l-0.1-30.7
		L363.7,159.2z M367.4,196.5l24.5,1l-6,31l-22.1-1L367.4,196.5z M371.6,159.9l27.2,2.3l-5.3,27.4l-25.1-1L371.6,159.9z M379.5,261.9
		H360l3-26.3l21.4,1L379.5,261.9z M355.9,227.2l-26.6-1.2l-0.1-31.1l30.3,1.2L355.9,227.2z M351.9,261.9h-22.5l-0.1-27.8l25.7,1.1
		L351.9,261.9z M217.3,261.9l-10.1-33.3l31.5,1.4l5.4,31.9L217.3,261.9L217.3,261.9z M386.1,269.9L408.3,155l-229.4-19.6
		c-1.3-3.7-5.3-12.6-15-17.7c-9.8-5.2-22.4-5-37.5,0.6l2,5.4c13.4-5,24.4-5.4,32.8-0.9c10.1,5.3,12.7,15.8,12.7,15.9l44.9,148.1
		c-1.6,1.5-3,3.2-4.2,5c-7.6,11.6-5.6,27.3,5.8,46.7l4.8-2.8c-10.3-17.4-12.2-31.1-5.9-40.8c16.7-25.5,84.7-17.7,85.4-17.6l0.7-5.5
		c-2.6-0.3-56-6.5-81.7,11.1l-3.9-12.9H386.1z"/>
</g>
<g>
	<defs>
		<rect id="SVGID_45_" width="512" height="512"/>
	</defs>
	<clipPath id="SVGID_46_">
		<use xlink:href="#SVGID_45_"  style="overflow:visible;"/>
	</clipPath>
	<path class="st22" d="M114.7,124.6c1.1,4,6,6.3,11,4.9l15.6-4.2c4.9-1.3,8.1-5.7,7-9.8c-1.1-4-6-6.3-10.9-5l-15.6,4.2
		C116.8,116.2,113.7,120.6,114.7,124.6z"/>
</g>
<g>
	<defs>
		<rect id="SVGID_47_" width="512" height="512"/>
	</defs>
	<clipPath id="SVGID_48_">
		<use xlink:href="#SVGID_47_"  style="overflow:visible;"/>
	</clipPath>
	<circle class="st23" cx="314.7" cy="152.7" r="55.1"/>
</g>
<g>
	<defs>
		<rect id="SVGID_49_" width="512" height="512"/>
	</defs>
	<clipPath id="SVGID_50_">
		<use xlink:href="#SVGID_49_"  style="overflow:visible;"/>
	</clipPath>
	<polygon class="st24" points="300.9,184.8 276.6,158.6 282.4,153.2 301.4,173.5 347.8,131.7 353.1,137.7 	"/>
</g>
</svg>
